<mxfile host="app.diagrams.net" agent="Mozilla/5.0 (Windows NT 10.0; Win64; x64) AppleWebKit/537.36 (KHTML, like Gecko) Chrome/136.0.0.0 Safari/537.36" version="27.0.2">
  <diagram name="Σελίδα-1" id="E4Y5oDpLHOIiz2aEl1_i">
    <mxGraphModel dx="1188" dy="748" grid="1" gridSize="10" guides="1" tooltips="1" connect="1" arrows="1" fold="1" page="1" pageScale="1" pageWidth="1169" pageHeight="1654" math="0" shadow="0">
      <root>
        <mxCell id="0" />
        <mxCell id="1" parent="0" />
        <mxCell id="S04QTio0sJF8wM8Y_CvL-28" value="Συλλέκτης" style="shape=umlActor;verticalLabelPosition=bottom;verticalAlign=top;html=1;" parent="1" vertex="1">
          <mxGeometry x="110" y="200" width="30" height="60" as="geometry" />
        </mxCell>
        <mxCell id="S04QTio0sJF8wM8Y_CvL-32" value="" style="endArrow=none;html=1;rounded=0;" parent="1" edge="1">
          <mxGeometry relative="1" as="geometry">
            <mxPoint x="140" y="229.41" as="sourcePoint" />
            <mxPoint x="220" y="120" as="targetPoint" />
          </mxGeometry>
        </mxCell>
        <mxCell id="S04QTio0sJF8wM8Y_CvL-33" value="" style="shape=umlBoundary;whiteSpace=wrap;html=1;" parent="1" vertex="1">
          <mxGeometry x="220" y="80" width="90" height="80" as="geometry" />
        </mxCell>
        <mxCell id="S04QTio0sJF8wM8Y_CvL-34" value="&lt;font&gt;My Requests&lt;/font&gt;" style="text;html=1;align=center;verticalAlign=middle;resizable=0;points=[];autosize=1;strokeColor=none;fillColor=none;fontSize=14;" parent="1" vertex="1">
          <mxGeometry x="220" y="50" width="110" height="30" as="geometry" />
        </mxCell>
        <mxCell id="Q_mAOunlNOxHCcNTo3r2-4" value="Επιλογή αιτημάτων&lt;div&gt;για σπάνιο Βιβλίο&lt;/div&gt;" style="text;html=1;align=center;verticalAlign=middle;resizable=0;points=[];autosize=1;strokeColor=none;fillColor=none;rotation=-50;" parent="1" vertex="1">
          <mxGeometry x="110" y="133" width="130" height="40" as="geometry" />
        </mxCell>
        <mxCell id="Q_mAOunlNOxHCcNTo3r2-5" value="" style="endArrow=none;html=1;rounded=0;entryX=-0.011;entryY=0.475;entryDx=0;entryDy=0;entryPerimeter=0;" parent="1" target="Q_mAOunlNOxHCcNTo3r2-6" edge="1">
          <mxGeometry relative="1" as="geometry">
            <mxPoint x="140" y="240" as="sourcePoint" />
            <mxPoint x="240" y="239" as="targetPoint" />
          </mxGeometry>
        </mxCell>
        <mxCell id="Q_mAOunlNOxHCcNTo3r2-6" value="" style="shape=umlBoundary;whiteSpace=wrap;html=1;" parent="1" vertex="1">
          <mxGeometry x="280" y="200" width="90" height="80" as="geometry" />
        </mxCell>
        <mxCell id="Q_mAOunlNOxHCcNTo3r2-7" value="Special&amp;nbsp;&lt;span style=&quot;background-color: transparent; color: light-dark(rgb(0, 0, 0), rgb(255, 255, 255));&quot;&gt;Requests&lt;/span&gt;" style="text;html=1;align=center;verticalAlign=middle;resizable=0;points=[];autosize=1;strokeColor=none;fillColor=none;fontSize=14;" parent="1" vertex="1">
          <mxGeometry x="270" y="168" width="130" height="30" as="geometry" />
        </mxCell>
        <mxCell id="Q_mAOunlNOxHCcNTo3r2-8" value="" style="endArrow=none;html=1;rounded=0;entryX=1.022;entryY=0.513;entryDx=0;entryDy=0;entryPerimeter=0;" parent="1" target="S04QTio0sJF8wM8Y_CvL-33" edge="1">
          <mxGeometry relative="1" as="geometry">
            <mxPoint x="450" y="120" as="sourcePoint" />
            <mxPoint x="230" y="130" as="targetPoint" />
          </mxGeometry>
        </mxCell>
        <mxCell id="Q_mAOunlNOxHCcNTo3r2-9" value="" style="endArrow=none;html=1;rounded=0;exitX=0.989;exitY=0.538;exitDx=0;exitDy=0;exitPerimeter=0;entryX=0;entryY=0.5;entryDx=0;entryDy=0;entryPerimeter=0;" parent="1" source="Q_mAOunlNOxHCcNTo3r2-6" target="Q_mAOunlNOxHCcNTo3r2-11" edge="1">
          <mxGeometry relative="1" as="geometry">
            <mxPoint x="160" y="249.41" as="sourcePoint" />
            <mxPoint x="430" y="240" as="targetPoint" />
          </mxGeometry>
        </mxCell>
        <mxCell id="Q_mAOunlNOxHCcNTo3r2-10" value="Εμφάνιση Αιτημάτων" style="ellipse;shape=umlControl;whiteSpace=wrap;html=1;" parent="1" vertex="1">
          <mxGeometry x="440" y="70" width="70" height="80" as="geometry" />
        </mxCell>
        <mxCell id="Q_mAOunlNOxHCcNTo3r2-11" value="Εμφάνιση φόρμας αιτήματος" style="ellipse;shape=umlControl;whiteSpace=wrap;html=1;" parent="1" vertex="1">
          <mxGeometry x="440" y="190" width="70" height="80" as="geometry" />
        </mxCell>
        <mxCell id="Q_mAOunlNOxHCcNTo3r2-12" value="" style="endArrow=none;html=1;rounded=0;exitX=1;exitY=0.25;exitDx=0;exitDy=0;exitPerimeter=0;" parent="1" source="Q_mAOunlNOxHCcNTo3r2-14" target="Q_mAOunlNOxHCcNTo3r2-11" edge="1">
          <mxGeometry relative="1" as="geometry">
            <mxPoint x="330" y="340" as="sourcePoint" />
            <mxPoint x="440" y="250" as="targetPoint" />
            <Array as="points">
              <mxPoint x="447" y="340" />
            </Array>
          </mxGeometry>
        </mxCell>
        <mxCell id="Q_mAOunlNOxHCcNTo3r2-14" value="" style="shape=umlBoundary;whiteSpace=wrap;html=1;" parent="1" vertex="1">
          <mxGeometry x="285" y="330" width="90" height="80" as="geometry" />
        </mxCell>
        <mxCell id="Q_mAOunlNOxHCcNTo3r2-15" value="" style="endArrow=none;html=1;rounded=0;entryX=-0.033;entryY=0.4;entryDx=0;entryDy=0;entryPerimeter=0;exitX=1;exitY=1;exitDx=0;exitDy=0;exitPerimeter=0;" parent="1" source="S04QTio0sJF8wM8Y_CvL-28" target="Q_mAOunlNOxHCcNTo3r2-14" edge="1">
          <mxGeometry relative="1" as="geometry">
            <mxPoint x="150" y="250" as="sourcePoint" />
            <mxPoint x="250" y="249" as="targetPoint" />
          </mxGeometry>
        </mxCell>
        <mxCell id="Q_mAOunlNOxHCcNTo3r2-16" value="" style="endArrow=none;html=1;rounded=0;exitX=1.033;exitY=0.513;exitDx=0;exitDy=0;exitPerimeter=0;" parent="1" source="Q_mAOunlNOxHCcNTo3r2-14" edge="1">
          <mxGeometry relative="1" as="geometry">
            <mxPoint x="350" y="370" as="sourcePoint" />
            <mxPoint x="450" y="360" as="targetPoint" />
          </mxGeometry>
        </mxCell>
        <mxCell id="Q_mAOunlNOxHCcNTo3r2-17" value="" style="endArrow=none;html=1;rounded=0;entryX=1.022;entryY=0.513;entryDx=0;entryDy=0;entryPerimeter=0;exitX=1.043;exitY=0.6;exitDx=0;exitDy=0;exitPerimeter=0;" parent="1" source="Q_mAOunlNOxHCcNTo3r2-10" target="Q_mAOunlNOxHCcNTo3r2-18" edge="1">
          <mxGeometry relative="1" as="geometry">
            <mxPoint x="640" y="121" as="sourcePoint" />
            <mxPoint x="516" y="120.5" as="targetPoint" />
          </mxGeometry>
        </mxCell>
        <mxCell id="Q_mAOunlNOxHCcNTo3r2-18" value="" style="ellipse;shape=umlEntity;whiteSpace=wrap;html=1;" parent="1" vertex="1">
          <mxGeometry x="600" y="80" width="80" height="80" as="geometry" />
        </mxCell>
        <mxCell id="Q_mAOunlNOxHCcNTo3r2-19" value="Βάση Δεδομένων" style="text;html=1;align=center;verticalAlign=middle;resizable=0;points=[];autosize=1;strokeColor=none;fillColor=none;" parent="1" vertex="1">
          <mxGeometry x="585" y="50" width="120" height="30" as="geometry" />
        </mxCell>
        <mxCell id="Q_mAOunlNOxHCcNTo3r2-20" value="Έλεγχος Εγκυρότητας Πεδίων" style="ellipse;shape=umlControl;whiteSpace=wrap;html=1;" parent="1" vertex="1">
          <mxGeometry x="450" y="320" width="80" height="90" as="geometry" />
        </mxCell>
        <mxCell id="Q_mAOunlNOxHCcNTo3r2-22" value="" style="endArrow=none;html=1;rounded=0;exitX=1.033;exitY=0.513;exitDx=0;exitDy=0;exitPerimeter=0;entryX=0.071;entryY=0.825;entryDx=0;entryDy=0;entryPerimeter=0;" parent="1" target="Q_mAOunlNOxHCcNTo3r2-23" edge="1">
          <mxGeometry relative="1" as="geometry">
            <mxPoint x="520" y="360.5" as="sourcePoint" />
            <mxPoint x="620" y="300" as="targetPoint" />
          </mxGeometry>
        </mxCell>
        <mxCell id="Q_mAOunlNOxHCcNTo3r2-23" value="Δημιουργία Ειδικού Αιτήματος" style="ellipse;shape=umlControl;whiteSpace=wrap;html=1;" parent="1" vertex="1">
          <mxGeometry x="570" y="250" width="70" height="80" as="geometry" />
        </mxCell>
        <mxCell id="Q_mAOunlNOxHCcNTo3r2-24" value="" style="endArrow=none;html=1;rounded=0;exitX=0.343;exitY=0.163;exitDx=0;exitDy=0;exitPerimeter=0;entryX=0.5;entryY=1;entryDx=0;entryDy=0;" parent="1" source="Q_mAOunlNOxHCcNTo3r2-23" target="Q_mAOunlNOxHCcNTo3r2-18" edge="1">
          <mxGeometry relative="1" as="geometry">
            <mxPoint x="530" y="370.5" as="sourcePoint" />
            <mxPoint x="635" y="326" as="targetPoint" />
          </mxGeometry>
        </mxCell>
        <mxCell id="Q_mAOunlNOxHCcNTo3r2-25" value="" style="endArrow=none;html=1;rounded=0;exitX=0.929;exitY=0.275;exitDx=0;exitDy=0;exitPerimeter=0;entryX=0.075;entryY=0.725;entryDx=0;entryDy=0;entryPerimeter=0;" parent="1" source="Q_mAOunlNOxHCcNTo3r2-23" target="Q_mAOunlNOxHCcNTo3r2-26" edge="1">
          <mxGeometry relative="1" as="geometry">
            <mxPoint x="654" y="273" as="sourcePoint" />
            <mxPoint x="700" y="210" as="targetPoint" />
          </mxGeometry>
        </mxCell>
        <mxCell id="Q_mAOunlNOxHCcNTo3r2-26" value="" style="ellipse;shape=umlEntity;whiteSpace=wrap;html=1;" parent="1" vertex="1">
          <mxGeometry x="690" y="190" width="80" height="80" as="geometry" />
        </mxCell>
        <mxCell id="Q_mAOunlNOxHCcNTo3r2-27" value="Ειδικό Αίτημα" style="text;html=1;align=center;verticalAlign=middle;resizable=0;points=[];autosize=1;strokeColor=none;fillColor=none;" parent="1" vertex="1">
          <mxGeometry x="690" y="160" width="90" height="30" as="geometry" />
        </mxCell>
        <mxCell id="Q_mAOunlNOxHCcNTo3r2-28" value="Επιλογή νέου Ειδικού&amp;nbsp;&lt;div&gt;Αιτήματος&amp;nbsp;&lt;/div&gt;" style="text;html=1;align=center;verticalAlign=middle;resizable=0;points=[];autosize=1;strokeColor=none;fillColor=none;" parent="1" vertex="1">
          <mxGeometry x="150" y="203" width="140" height="40" as="geometry" />
        </mxCell>
        <mxCell id="Q_mAOunlNOxHCcNTo3r2-29" value="Συμπλήρωση στοιχείων&amp;nbsp;&lt;div&gt;βιβλίου για Αίτηση&lt;/div&gt;" style="text;html=1;align=center;verticalAlign=middle;resizable=0;points=[];autosize=1;strokeColor=none;fillColor=none;rotation=35;" parent="1" vertex="1">
          <mxGeometry x="145" y="280" width="150" height="40" as="geometry" />
        </mxCell>
        <mxCell id="Q_mAOunlNOxHCcNTo3r2-30" value="" style="endArrow=none;html=1;rounded=0;entryX=0.933;entryY=0.163;entryDx=0;entryDy=0;entryPerimeter=0;exitX=0.186;exitY=0.888;exitDx=0;exitDy=0;exitPerimeter=0;" parent="1" source="Q_mAOunlNOxHCcNTo3r2-10" target="Q_mAOunlNOxHCcNTo3r2-6" edge="1">
          <mxGeometry relative="1" as="geometry">
            <mxPoint x="460" y="130" as="sourcePoint" />
            <mxPoint x="322" y="131" as="targetPoint" />
          </mxGeometry>
        </mxCell>
        <mxCell id="Q_mAOunlNOxHCcNTo3r2-31" value="Έγκυρο" style="text;html=1;align=center;verticalAlign=middle;resizable=0;points=[];autosize=1;strokeColor=none;fillColor=none;rotation=-30;" parent="1" vertex="1">
          <mxGeometry x="510" y="310" width="60" height="30" as="geometry" />
        </mxCell>
        <mxCell id="Q_mAOunlNOxHCcNTo3r2-32" value="" style="endArrow=none;html=1;rounded=0;" parent="1" source="Q_mAOunlNOxHCcNTo3r2-33" target="Q_mAOunlNOxHCcNTo3r2-23" edge="1">
          <mxGeometry relative="1" as="geometry">
            <mxPoint x="410" y="480" as="sourcePoint" />
            <mxPoint x="800" y="575" as="targetPoint" />
            <Array as="points">
              <mxPoint x="570" y="680" />
              <mxPoint x="860" y="470" />
            </Array>
          </mxGeometry>
        </mxCell>
        <mxCell id="Q_mAOunlNOxHCcNTo3r2-33" value="Εμφάνιση μηνύματος δημιουργίας αιτήματος" style="ellipse;shape=umlControl;whiteSpace=wrap;html=1;" parent="1" vertex="1">
          <mxGeometry x="320" y="600" width="80" height="90" as="geometry" />
        </mxCell>
        <mxCell id="Q_mAOunlNOxHCcNTo3r2-34" value="" style="endArrow=none;html=1;rounded=0;" parent="1" source="Q_mAOunlNOxHCcNTo3r2-35" target="Q_mAOunlNOxHCcNTo3r2-33" edge="1">
          <mxGeometry relative="1" as="geometry">
            <mxPoint x="314" y="490" as="sourcePoint" />
            <mxPoint x="387" y="490" as="targetPoint" />
          </mxGeometry>
        </mxCell>
        <mxCell id="Q_mAOunlNOxHCcNTo3r2-35" value="" style="shape=umlBoundary;whiteSpace=wrap;html=1;" parent="1" vertex="1">
          <mxGeometry x="80" y="540" width="90" height="80" as="geometry" />
        </mxCell>
        <mxCell id="Q_mAOunlNOxHCcNTo3r2-36" value="" style="endArrow=none;html=1;rounded=0;" parent="1" target="Q_mAOunlNOxHCcNTo3r2-35" edge="1">
          <mxGeometry relative="1" as="geometry">
            <mxPoint x="130" y="290" as="sourcePoint" />
            <mxPoint x="287" y="392" as="targetPoint" />
          </mxGeometry>
        </mxCell>
        <mxCell id="Q_mAOunlNOxHCcNTo3r2-37" value="&lt;font style=&quot;font-size: 14px;&quot;&gt;&lt;span style=&quot;line-height: 115%; font-family: Calibri, sans-serif;&quot; lang=&quot;EN-US&quot;&gt;Special&lt;/span&gt;&lt;span style=&quot;line-height: 115%; font-family: Calibri, sans-serif;&quot; lang=&quot;EN-US&quot;&gt; &lt;/span&gt;&lt;span style=&quot;line-height: 115%; font-family: Calibri, sans-serif;&quot; lang=&quot;EN-US&quot;&gt;Request&lt;/span&gt;&lt;span style=&quot;line-height: 115%; font-family: Calibri, sans-serif;&quot; lang=&quot;EN-US&quot;&gt;&amp;nbsp;&lt;/span&gt;&lt;/font&gt;&lt;div&gt;&lt;font style=&quot;font-size: 14px;&quot;&gt;&lt;span style=&quot;line-height: 115%; font-family: Calibri, sans-serif;&quot; lang=&quot;EN-US&quot;&gt;Completed&lt;/span&gt;&lt;/font&gt;&lt;/div&gt;" style="text;html=1;align=center;verticalAlign=middle;resizable=0;points=[];autosize=1;strokeColor=none;fillColor=none;" parent="1" vertex="1">
          <mxGeometry x="120" y="490" width="120" height="50" as="geometry" />
        </mxCell>
        <mxCell id="Q_mAOunlNOxHCcNTo3r2-38" value="" style="endArrow=none;html=1;rounded=0;" parent="1" source="Q_mAOunlNOxHCcNTo3r2-39" target="Q_mAOunlNOxHCcNTo3r2-35" edge="1">
          <mxGeometry relative="1" as="geometry">
            <mxPoint x="100" y="450" as="sourcePoint" />
            <mxPoint x="241" y="479" as="targetPoint" />
          </mxGeometry>
        </mxCell>
        <mxCell id="Q_mAOunlNOxHCcNTo3r2-39" value="Αποστολή email σε κατάλληλους χρήστες" style="ellipse;shape=umlControl;whiteSpace=wrap;html=1;" parent="1" vertex="1">
          <mxGeometry x="20" y="326.46" width="80" height="90" as="geometry" />
        </mxCell>
        <mxCell id="Q_mAOunlNOxHCcNTo3r2-41" value="Ελλιπή Υποχρεωτικά&lt;div&gt;πεδία&lt;/div&gt;" style="text;html=1;align=center;verticalAlign=middle;resizable=0;points=[];autosize=1;strokeColor=none;fillColor=none;rotation=90;fontColor=light-dark(#FF3333,#FF3333);" parent="1" vertex="1">
          <mxGeometry x="470" y="430" width="130" height="40" as="geometry" />
        </mxCell>
        <mxCell id="Q_mAOunlNOxHCcNTo3r2-42" value="Εμφάνιση μηνύματος λάθους υποχρεωτικών πεδίων" style="ellipse;shape=umlControl;whiteSpace=wrap;html=1;fontColor=light-dark(#FF3333,#FF3333);strokeColor=light-dark(#FF3333,#FF3333);" parent="1" vertex="1">
          <mxGeometry x="500" y="500" width="100" height="90" as="geometry" />
        </mxCell>
        <mxCell id="Q_mAOunlNOxHCcNTo3r2-46" value="" style="endArrow=none;html=1;rounded=0;exitX=0.088;exitY=0.338;exitDx=0;exitDy=0;exitPerimeter=0;entryX=0.829;entryY=0.95;entryDx=0;entryDy=0;entryPerimeter=0;strokeColor=light-dark(#FF3333,#ED0202);" parent="1" source="Q_mAOunlNOxHCcNTo3r2-42" target="Q_mAOunlNOxHCcNTo3r2-20" edge="1">
          <mxGeometry relative="1" as="geometry">
            <mxPoint x="383" y="401" as="sourcePoint" />
            <mxPoint x="460" y="370" as="targetPoint" />
          </mxGeometry>
        </mxCell>
        <mxCell id="Q_mAOunlNOxHCcNTo3r2-47" value="" style="shape=umlBoundary;whiteSpace=wrap;html=1;fontColor=light-dark(#000000,#FF0000);strokeColor=light-dark(#FF3333,#FF3333);" parent="1" vertex="1">
          <mxGeometry x="270" y="450" width="90" height="80" as="geometry" />
        </mxCell>
        <mxCell id="Q_mAOunlNOxHCcNTo3r2-48" value="&lt;span lang=&quot;EN-US&quot; style=&quot;font-family: Calibri, sans-serif;&quot;&gt;&lt;font style=&quot;font-size: 14px;&quot;&gt;Special&amp;nbsp; Request Form&lt;/font&gt;&lt;/span&gt;" style="text;whiteSpace=wrap;html=1;fontColor=light-dark(#FF3333,#FF3333);" parent="1" vertex="1">
          <mxGeometry x="265" y="430" width="130" height="30" as="geometry" />
        </mxCell>
        <mxCell id="Q_mAOunlNOxHCcNTo3r2-49" value="" style="endArrow=none;html=1;rounded=0;entryX=0;entryY=0.444;entryDx=0;entryDy=0;entryPerimeter=0;strokeColor=light-dark(#FF3333,#FF0000);exitX=1;exitY=0.538;exitDx=0;exitDy=0;exitPerimeter=0;fontColor=#FF3333;" parent="1" source="Q_mAOunlNOxHCcNTo3r2-47" target="Q_mAOunlNOxHCcNTo3r2-42" edge="1">
          <mxGeometry relative="1" as="geometry">
            <mxPoint x="375" y="391" as="sourcePoint" />
            <mxPoint x="568" y="483" as="targetPoint" />
          </mxGeometry>
        </mxCell>
        <mxCell id="Q_mAOunlNOxHCcNTo3r2-50" value="" style="endArrow=none;html=1;rounded=0;entryX=-0.044;entryY=0.575;entryDx=0;entryDy=0;entryPerimeter=0;strokeColor=light-dark(#FF3333,#FF0000);fontColor=light-dark(#FF3333,#FF3333);" parent="1" target="Q_mAOunlNOxHCcNTo3r2-47" edge="1">
          <mxGeometry relative="1" as="geometry">
            <mxPoint x="140" y="280" as="sourcePoint" />
            <mxPoint x="578" y="493" as="targetPoint" />
          </mxGeometry>
        </mxCell>
        <mxCell id="Q_mAOunlNOxHCcNTo3r2-51" value="&lt;span style=&quot;font-family: Helvetica; font-size: 12px; font-style: normal; font-variant-ligatures: normal; font-variant-caps: normal; font-weight: 400; letter-spacing: normal; orphans: 2; text-align: center; text-indent: 0px; text-transform: none; widows: 2; word-spacing: 0px; -webkit-text-stroke-width: 0px; white-space: nowrap; text-decoration-thickness: initial; text-decoration-style: initial; text-decoration-color: initial; float: none; background-color: light-dark(#ffffff, var(--ge-dark-color, #121212)); display: inline !important;&quot;&gt;&lt;font style=&quot;&quot;&gt;Συμπλήρωση στοιχείων&amp;nbsp;&lt;/font&gt;&lt;/span&gt;&lt;div style=&quot;forced-color-adjust: none; font-family: Helvetica; font-size: 12px; font-style: normal; font-variant-ligatures: normal; font-variant-caps: normal; font-weight: 400; letter-spacing: normal; orphans: 2; text-align: center; text-indent: 0px; text-transform: none; widows: 2; word-spacing: 0px; -webkit-text-stroke-width: 0px; white-space: nowrap; text-decoration-thickness: initial; text-decoration-style: initial; text-decoration-color: initial; box-shadow: none !important;&quot;&gt;&lt;font style=&quot;background-color: light-dark(#ffffff, var(--ge-dark-color, #121212));&quot;&gt;βιβλίου για Αίτηση&lt;/font&gt;&lt;/div&gt;" style="text;whiteSpace=wrap;html=1;rotation=60;fontColor=light-dark(#FF3333,#FF0000);" parent="1" vertex="1">
          <mxGeometry x="150" y="366.46" width="150" height="50" as="geometry" />
        </mxCell>
        <mxCell id="Q_mAOunlNOxHCcNTo3r2-52" value="" style="endArrow=none;html=1;rounded=0;entryX=0.971;entryY=0.613;entryDx=0;entryDy=0;entryPerimeter=0;strokeColor=light-dark(#FF3333,#ED0202);" parent="1" source="Q_mAOunlNOxHCcNTo3r2-54" target="Q_mAOunlNOxHCcNTo3r2-20" edge="1">
          <mxGeometry relative="1" as="geometry">
            <mxPoint x="680" y="390" as="sourcePoint" />
            <mxPoint x="518" y="406" as="targetPoint" />
          </mxGeometry>
        </mxCell>
        <mxCell id="Q_mAOunlNOxHCcNTo3r2-53" value="&lt;font style=&quot;&quot;&gt;Διπλότυπη Αίτηση&lt;/font&gt;" style="text;html=1;align=center;verticalAlign=middle;resizable=0;points=[];autosize=1;strokeColor=none;fillColor=none;rotation=30;fontColor=light-dark(#FF3333,#FF0000);" parent="1" vertex="1">
          <mxGeometry x="545" y="376.46" width="120" height="30" as="geometry" />
        </mxCell>
        <mxCell id="Q_mAOunlNOxHCcNTo3r2-54" value="Εμφάνιση μηνύματος διπλότυπης&lt;div&gt;αίτησης.&lt;/div&gt;" style="ellipse;shape=umlControl;whiteSpace=wrap;html=1;fontColor=light-dark(#FF3333,#FF0000);strokeColor=light-dark(#FF3333,#FF3333);" parent="1" vertex="1">
          <mxGeometry x="650" y="416.46" width="100" height="90" as="geometry" />
        </mxCell>
        <mxCell id="Q_mAOunlNOxHCcNTo3r2-55" value="" style="endArrow=none;html=1;rounded=0;entryX=0.967;entryY=0.788;entryDx=0;entryDy=0;entryPerimeter=0;strokeColor=light-dark(#FF3333,#FF0000);" parent="1" source="Q_mAOunlNOxHCcNTo3r2-54" target="Q_mAOunlNOxHCcNTo3r2-47" edge="1">
          <mxGeometry relative="1" as="geometry">
            <mxPoint x="666" y="449" as="sourcePoint" />
            <mxPoint x="528" y="379" as="targetPoint" />
            <Array as="points">
              <mxPoint x="570" y="650" />
            </Array>
          </mxGeometry>
        </mxCell>
        <mxCell id="fOLDn4_tAzrNDDO7f-6U-1" value="Special Request Form" style="text;html=1;align=center;verticalAlign=middle;resizable=0;points=[];autosize=1;strokeColor=none;fillColor=none;fontSize=14;" vertex="1" parent="1">
          <mxGeometry x="270" y="300" width="160" height="30" as="geometry" />
        </mxCell>
      </root>
    </mxGraphModel>
  </diagram>
</mxfile>
